<svg width="105" height="30" viewBox="0 0 105 30" fill="none" xmlns="http://www.w3.org/2000/svg">
<path d="M23.5598 9.78668C22.2315 9.78668 21.2199 10.183 20.5249 10.9755C19.8299 11.7681 19.4294 12.8305 19.3236 14.1626H27.5431C27.5431 12.8091 27.2269 11.7422 26.5946 10.9618C25.9623 10.1814 24.9507 9.78973 23.5598 9.78668ZM23.5552 7.02747C24.8041 7.02747 25.8865 7.2206 26.8024 7.60687C27.6786 7.96458 28.4591 8.52226 29.0814 9.23536C29.7017 9.96563 30.1593 10.8196 30.4238 11.7405C30.7152 12.7112 30.8608 13.7916 30.8608 14.9818V16.5495H19.2152C19.2587 18.0301 19.6335 19.2305 20.3394 20.1507C21.0453 21.0709 22.1172 21.5301 23.5552 21.5284C24.6792 21.5284 25.522 21.3093 26.0838 20.8712C26.6456 20.4331 27.0199 19.806 27.2067 18.9899H30.6426C30.3513 20.6809 29.6328 21.9911 28.487 22.9204C27.3413 23.8497 25.6973 24.3141 23.5552 24.3137C20.9741 24.3137 19.0122 23.5673 17.6696 22.0744C16.3271 20.5816 15.6558 18.4782 15.6558 15.7643C15.6558 14.3655 15.8482 13.1244 16.2332 12.0409C16.6182 10.9575 17.1595 10.044 17.8571 9.30068C18.5544 8.55913 19.4076 7.98152 20.355 7.60949C21.3227 7.22191 22.3894 7.0279 23.5552 7.02747Z" fill="#231F20"/>
<path d="M36.1435 3.19174H32.4619V23.9087H36.1435V3.19174Z" fill="#231F20"/>
<path d="M45.8235 9.90883C44.3141 9.90883 43.2082 10.4255 42.5058 11.4589C41.8034 12.4923 41.4522 13.8859 41.4522 15.6396C41.4522 17.4137 41.7927 18.8227 42.4738 19.8666C43.1549 20.9104 44.2715 21.433 45.8235 21.4343C47.3329 21.4343 48.439 20.9176 49.1419 19.8842C49.8448 18.8508 50.1975 17.4359 50.2001 15.6396C50.2001 13.865 49.8491 12.4662 49.1471 11.4432C48.4451 10.4203 47.3373 9.90883 45.8235 9.90883ZM45.8549 7.02747C47.1548 7.02747 48.3088 7.24151 49.317 7.66958C50.2802 8.06706 51.1446 8.67113 51.8489 9.43916C52.5299 10.1904 53.0436 11.0931 53.3898 12.1474C53.736 13.2017 53.9091 14.3558 53.9091 15.6095C53.9091 17.0292 53.7099 18.2764 53.3114 19.3512C52.913 20.4259 52.3521 21.3341 51.6287 22.0758C50.9077 22.8158 50.0326 23.3878 49.0655 23.7513C48.0804 24.1271 46.9902 24.315 45.7948 24.315C43.2368 24.315 41.2553 23.5634 39.8505 22.0601C38.4456 20.5568 37.7432 18.4271 37.7432 15.6709C37.7432 14.3762 37.9267 13.1965 38.2938 12.1317C38.6609 11.067 39.1894 10.1588 39.8792 9.40716C40.5896 8.64291 41.4593 8.04416 42.4268 7.65325C43.4353 7.2365 44.5789 7.0279 45.8575 7.02747H45.8549Z" fill="#231F20"/>
<path d="M62.8138 24.3137C65.0025 24.3137 66.6861 23.7657 67.8645 22.6695C69.0429 21.5734 69.736 20.0547 69.9437 18.1133H66.351C66.2047 19.1781 65.8502 19.9974 65.2876 20.5714C64.7249 21.1454 63.9014 21.4323 62.8171 21.4323C62.0663 21.4323 61.4305 21.281 60.9097 20.9784C60.3963 20.6835 59.966 20.2635 59.6587 19.7575C59.3461 19.2458 59.1168 18.635 58.9709 17.9252C58.8209 17.1724 58.7476 16.4064 58.7521 15.6389C58.7516 14.9346 58.8196 14.2319 58.9552 13.5408C59.0745 12.8976 59.3018 12.2792 59.6274 11.7117C59.9347 11.185 60.3636 10.7395 60.8783 10.4125C61.4009 10.078 62.0576 9.91102 62.8484 9.91145C63.9537 9.91145 64.7406 10.2141 65.2092 10.8194C65.6778 11.4248 65.9959 12.1868 66.1635 13.1057L69.6968 12.5733C69.5744 11.8512 69.3645 11.1466 69.0717 10.4752C68.7833 9.81206 68.3692 9.21111 67.8521 8.70561C67.3295 8.19392 66.6728 7.78674 65.882 7.48408C65.0912 7.18142 64.1218 7.03009 62.9738 7.03009C61.7227 7.03009 60.6072 7.23891 59.6274 7.65653C58.6768 8.05321 57.8273 8.65789 57.1412 9.42611C56.4636 10.1878 55.9478 11.1062 55.5937 12.1814C55.2397 13.2566 55.0624 14.4413 55.062 15.7356C55.062 17.0303 55.2183 18.2048 55.531 19.2591C55.8437 20.3134 56.3227 21.2161 56.9681 21.9673C57.6281 22.7292 58.4584 23.3247 59.3916 23.7056C60.3596 24.111 61.5004 24.3137 62.8138 24.3137Z" fill="#231F20"/>
<path d="M72.9474 1.91927e-05L69.707 1.87085L71.4985 4.97375L74.7389 3.10292L72.9474 1.91927e-05Z" fill="url(#paint0_linear)"/>
<path d="M75.1654 7.43246H71.4839V23.9087H75.1654V7.43246Z" fill="#231F20"/>
<path d="M84.0804 24.3137C85.1942 24.3234 86.3022 24.1518 87.3608 23.8055L86.8245 21.1044C86.5118 21.2097 86.1895 21.2843 85.8623 21.3272C85.5225 21.371 85.1801 21.3929 84.8374 21.3925C84.1646 21.3925 83.6547 21.202 83.3076 20.8209C82.9607 20.4394 82.6864 19.7522 82.6864 18.905V10.4784H86.8258V7.43247H82.6864V3.19174H79.1838V7.43247H76.6362V10.4797H79.1838V18.7424C79.1838 20.8274 79.581 21.9569 80.2943 22.8995C81.0076 23.8421 82.2735 24.3137 84.0804 24.3137Z" fill="#231F20"/>
<path d="M91.0995 30L104.581 7.43246H100.533L93.9508 19.0533L91.8625 7.43246H87.8759L91.4516 22.9824L87.5205 30H91.0995Z" fill="#231F20"/>
<path d="M7.22529 23.9178L20.6471 1.35031H16.4168L6.43032 18.7345L4.07741 3.19175H0L3.50389 23.9178H7.22529Z" fill="#231F20"/>
<defs>
<linearGradient id="paint0_linear" x1="72.2229" y1="4.97441" x2="72.2229" y2="0.000116313" gradientUnits="userSpaceOnUse">
<stop stop-color="#0042EC"/>
<stop offset="1" stop-color="#0077F7"/>
</linearGradient>
</defs>
</svg>
